<svg xmlns="http://www.w3.org/2000/svg" viewBox="0 0 52.34 48.69"><defs><style>.cls-1{fill:#231f20;fill-rule:evenodd;}</style></defs><g id="Layer_2" data-name="Layer 2"><g id="Layer_1-2" data-name="Layer 1"><path class="cls-1" d="M7.29,48.69a67.54,67.54,0,0,1,37.76,0C46,41,52,36.31,52.33,28.33,52.72,17.58,43.82,15,37.69,14.87a19,19,0,0,0-8.27-2,3.6,3.6,0,0,0,.29-1.39,3.52,3.52,0,0,0-1.86-3.11l0-2,3.07,1V2l-3.07,1L28.86,0H23.48l1.05,3.07L21.46,2V7.4l3.07-1,0,2a3.52,3.52,0,0,0-1.86,3.11,3.43,3.43,0,0,0,.29,1.39,19,19,0,0,0-8.27,2C8.52,15-.38,17.58,0,28.33.3,36.31,6.39,41,7.29,48.69ZM19.74,31.44c.57,2.85,2.42,4.41,3.31,3.68C25,33.53,20.68,23,24,17.61c-3.95-1-11.68,7.71-8.09,16.13,2.14,5,2.92.06,3.87-2.3ZM9.12,35.58c1.06,1.74,2.62,2.78,3.16,2.05,1.17-1.61-4.41-7.2-1-16C5.94,21.15,3,32.32,6.68,37.39c2.19,3,2.09.09,2.44-1.81ZM32.6,31.44c-.57,2.85-2.42,4.41-3.31,3.68-2-1.59,2.37-12.14-.91-17.51,3.94-1,11.68,7.71,8.09,16.13-2.14,5-2.92.06-3.87-2.3Zm10.62,4.14c-1.06,1.74-2.62,2.78-3.16,2.05-1.17-1.61,4.41-7.2,1-16,5.36-.49,8.3,10.68,4.62,15.75-2.19,3-2.09.09-2.44-1.81Z"/></g></g></svg>