<?xml version="1.0" encoding="utf-8"?>
<!-- Generator: Adobe Illustrator 25.0.0, SVG Export Plug-In . SVG Version: 6.00 Build 0)  -->
<svg version="1.1" id="Layer_1" xmlns="http://www.w3.org/2000/svg" xmlns:xlink="http://www.w3.org/1999/xlink" x="0px" y="0px"
	 viewBox="0 0 595.3 841.9" style="enable-background:new 0 0 595.3 841.9;" xml:space="preserve">
<style type="text/css">
	.st0{fill-rule:evenodd;clip-rule:evenodd;fill:#010101;}
</style>
<path class="st0" d="M299.5,428.4c-0.3-0.3-0.6-0.4-1.1-0.4c-0.4,0-0.8,0.2-1.1,0.4l0,0c-0.3,0.3-0.4,0.6-0.4,1.1
	c0,0.4,0.2,0.8,0.4,1.1l0,0c0.3,0.3,0.6,0.4,1.1,0.4c0.4,0,0.8-0.2,1.1-0.4l0,0c0.3-0.3,0.4-0.6,0.4-1.1
	C299.9,429.1,299.7,428.8,299.5,428.4L299.5,428.4L299.5,428.4z M302.3,436.4h-8l2.2-4c-0.2-0.1-0.4-0.3-0.6-0.5l0,0l0,0
	c-0.2-0.2-0.4-0.5-0.6-0.7l-4.1,2.2v-8l4.1,2.3c0.1-0.3,0.3-0.5,0.5-0.7l0,0l0,0c0.2-0.2,0.4-0.4,0.6-0.5l-2.3-4.1h8l-2.3,4
	c0.3,0.2,0.5,0.4,0.8,0.6l0,0l0,0c0.2,0.2,0.4,0.4,0.5,0.6l4-2.2v8l-4-2.2c-0.1,0.2-0.3,0.5-0.5,0.7l0,0l0,0
	c-0.2,0.2-0.5,0.4-0.7,0.6L302.3,436.4L302.3,436.4L302.3,436.4z M269,449.8h59.2c1.1,0,2,0.9,2,2l0,0c0,1.1-0.9,2-2,2H269
	c-1.1,0-2-0.9-2-2l0,0C267.1,450.6,268,449.8,269,449.8L269,449.8L269,449.8z M299.6,395.3c-0.4-0.4-0.9-0.6-1.4-0.6
	c-0.6,0-1.1,0.2-1.4,0.6l0,0c-0.4,0.4-0.6,0.9-0.6,1.4c0,0.6,0.2,1.1,0.6,1.4l0,0c0.4,0.4,0.9,0.6,1.4,0.6c0.6,0,1-0.2,1.4-0.6l0,0
	c0.4-0.4,0.6-0.9,0.6-1.4C300.2,396,300,395.5,299.6,395.3L299.6,395.3L299.6,395.3L299.6,395.3z M287.8,413.4
	c-2.3-0.8-4.3-1.7-6.1-2.6c-2.1-1-4-1.8-5.2-2c-1.4-0.2-2.5-0.1-3.4,0.2c-1,0.3-1.7,0.9-2.3,1.8c-0.7,1-1.1,2.3-1.3,3.7
	c-0.3,2.3,0,5,0.8,7.4c0.9,2.7,2.7,5,4.4,7.1c1.9,2.4,3.7,4.7,4.6,7.6h7.3c-1.3-2.1-2-4.5-2-7.2c0-6,3.8-11,9.1-13h-2.8
	C289.1,416.4,287.8,415.1,287.8,413.4L287.8,413.4L287.8,413.4L287.8,413.4z M307.4,405.5c1.3-0.5,2.6-1.1,3.8-1.7
	c2.7-1.2,5.1-2.3,7.4-2.6c2.6-0.3,4.8-0.1,6.8,0.5c2.8,0.9,4.9,2.6,6.4,4.8c1.4,2,2.2,4.4,2.5,7c0.5,3.5,0,7.3-1.1,10.7
	c-1.3,4-3.5,6.8-5.6,9.5c-0.8,1-1.5,1.9-2.1,2.8h2.7c1.1,0,2,0.9,2,2l0,0c0,1.1-0.9,2-2,2h-0.7v1.1h-0.1c-1.8,0-3.3,1.5-3.3,3.3
	c0,0.8,0.3,1.6,0.8,2.2h-9.1c0.5-0.6,0.8-1.3,0.8-2.2c0-1.8-1.5-3.3-3.3-3.3s-3.3,1.5-3.3,3.3c0,0.8,0.3,1.6,0.8,2.2h-9.7
	c0.5-0.6,0.8-1.3,0.8-2.2c0-1.8-1.5-3.3-3.3-3.3s-3.3,1.5-3.3,3.3c0,0.8,0.3,1.6,0.8,2.2h-8.6c0.5-0.6,0.8-1.3,0.8-2.2
	c0-1.8-1.5-3.3-3.3-3.3s-3.3,1.5-3.3,3.3c0,0.8,0.3,1.6,0.8,2.2h-10c0.5-0.6,0.8-1.3,0.8-2.2c0-1.8-1.5-3.3-3.3-3.3
	c-0.2,0-0.4,0-0.7,0.1v-1.2h-0.4c-1.1,0-2-0.9-2-2l0,0c0-1.1,0.9-2,2-2h1.5c-0.6-0.9-1.3-1.8-2.1-2.8c-2.1-2.7-4.3-5.6-5.6-9.5
	c-1.1-3.4-1.5-7.3-1.1-10.7c0.3-2.6,1.2-5,2.5-7c1.5-2.2,3.6-3.9,6.4-4.8c2-0.6,4.2-0.8,6.8-0.5c2.4,0.3,4.7,1.4,7.4,2.6
	c1.2,0.6,2.5,1.2,3.9,1.7c0.5-0.5,1.2-0.8,2-0.8h2.6l2.4-4.3c-0.3-0.2-0.5-0.4-0.8-0.6l0,0l0,0c-0.3-0.3-0.5-0.6-0.7-1l-5.4,2.9
	v-10.5l5.4,3c0.2-0.3,0.4-0.6,0.7-0.9l0,0l0,0c0.2-0.2,0.5-0.5,0.8-0.7l-3-5.4h10.5l-3,5.3c0.4,0.2,0.7,0.5,1,0.8l0,0l0,0
	c0.3,0.3,0.5,0.5,0.7,0.8l5.3-3v10.5l-5.2-2.9c-0.2,0.3-0.4,0.6-0.7,0.9l0,0l0,0c-0.3,0.3-0.6,0.5-1,0.7l2.4,4.2h2.6
	C306.2,404.8,306.9,405,307.4,405.5L307.4,405.5L307.4,405.5z M303,416.4c5.3,1.9,9.1,7,9.1,13c0,2.6-0.7,5.1-2,7.2h6.9
	c0.9-2.8,2.7-5.1,4.6-7.6c1.7-2.2,3.5-4.5,4.4-7.1c0.8-2.4,1.1-5,0.8-7.4c-0.2-1.4-0.6-2.7-1.3-3.7c-0.6-0.8-1.3-1.4-2.3-1.8
	c-0.9-0.3-2-0.4-3.4-0.2c-1.2,0.2-3.1,1-5.2,2c-1.8,0.8-3.8,1.7-6,2.5v0.1c0,1.6-1.3,3-3,3H303L303,416.4L303,416.4z"/>
</svg>
